<svg version="1.1" id="Layer_1" xmlns="http://www.w3.org/2000/svg" xmlns:xlink="http://www.w3.org/1999/xlink" x="0px" y="0px"
	 width="100%" viewBox="0 0 1024 1024" enable-background="new 0 0 1024 1024" xml:space="preserve">
<path fill="#000000" opacity="1.000000" stroke="none" 
	d="
M339.215759,456.139099 
	C323.197571,482.777344 304.775299,507.313599 286.917084,532.435791 
	C283.764862,504.950806 291.062164,476.374115 275.131012,450.446930 
	C285.159149,447.168396 295.203339,446.941315 305.235962,446.595032 
	C305.626190,440.807770 302.659210,439.796265 298.404968,440.016083 
	C282.928253,440.815765 267.571289,442.731293 252.203461,444.638885 
	C232.875397,447.038147 213.707214,450.419128 194.539627,453.779694 
	C188.152008,454.899628 183.388275,453.413879 178.905640,448.687225 
	C162.746643,431.648743 150.103241,412.537384 142.557083,390.153564 
	C141.383972,386.673798 141.984192,385.165314 145.271973,383.666046 
	C171.184219,371.850037 196.993408,359.807831 222.923477,348.031616 
	C226.169937,346.557220 227.857574,344.561218 228.678146,341.244354 
	C230.196426,335.107300 232.266144,329.092499 233.510284,322.906921 
	C234.330673,318.828217 236.476562,316.668823 240.032684,314.900848 
	C263.897156,303.036224 287.649902,290.946716 311.521393,279.096375 
	C314.940826,277.398895 316.307465,275.121063 316.789490,271.437653 
	C320.068481,246.380661 323.536682,221.348358 326.981323,196.313248 
	C327.180206,194.867783 327.707306,193.467453 328.161407,191.743393 
	C330.877075,193.122818 331.646729,195.640564 332.879089,197.654861 
	C353.603027,231.527573 371.125580,267.075531 387.985596,302.976288 
	C397.401215,323.025391 406.768890,343.106964 416.722412,362.889984 
	C423.690308,376.739075 427.140839,391.094604 427.347565,406.578766 
	C427.793396,439.970551 424.659454,473.101257 421.151794,506.230560 
	C420.649109,510.978607 419.014801,513.365173 413.709778,513.059692 
	C406.569183,512.648499 399.377411,513.214539 392.221802,512.960632 
	C369.141479,512.141724 350.730774,531.250427 350.921204,554.387390 
	C351.135193,580.380127 351.361694,606.386108 350.775055,632.368103 
	C350.222473,656.842224 351.246002,681.305359 350.535278,705.773987 
	C350.310120,713.526428 350.990967,721.305847 350.378387,729.333618 
	C347.684204,728.988647 347.367065,726.900146 346.508881,725.510864 
	C329.274414,697.609314 316.494080,667.587036 304.666290,637.127991 
	C298.641693,621.613403 292.556488,606.102112 288.674286,589.861084 
	C285.649231,577.205994 287.661896,565.036499 292.771637,553.314758 
	C300.955322,534.541321 313.243286,518.271729 324.697083,501.494659 
	C336.620026,484.030457 349.273407,467.032440 358.847809,448.061798 
	C372.057556,421.888123 368.729706,396.195038 356.663300,370.753235 
	C356.128326,369.625214 355.602081,368.311554 353.115540,367.755280 
	C359.001862,398.932281 356.941437,428.672272 339.215759,456.139099 
M256.659088,341.261261 
	C256.351562,341.386963 256.008392,341.461395 255.742035,341.646332 
	C253.021622,343.535400 247.664886,342.737274 247.611282,346.913605 
	C247.561859,350.763885 252.599762,351.105835 255.340424,353.064209 
	C257.921448,354.908478 260.050415,354.539764 262.293732,352.163025 
	C267.195984,346.969208 272.359985,342.023285 277.350433,336.911041 
	C278.174652,336.066681 279.644012,335.285217 278.386902,333.000793 
	C271.116180,334.709747 264.361694,338.196442 256.659088,341.261261 
z"/>
<path fill="#000000" opacity="1.000000" stroke="none" 
	d="
M676.024841,685.000000 
	C676.023193,641.500793 676.068298,598.501587 675.997498,555.502502 
	C675.962708,534.404114 663.994690,518.348572 644.775513,513.911316 
	C636.275330,511.948853 627.504700,513.208069 618.858398,512.971130 
	C605.941956,512.617249 607.217163,515.204773 605.556519,501.264069 
	C601.968384,471.140717 599.722534,440.956055 599.596985,410.588318 
	C599.525146,393.211700 603.055847,377.104736 610.967041,361.533783 
	C629.832458,324.402527 646.112549,286.007935 665.411499,249.075943 
	C674.982605,230.759979 684.785706,212.576874 695.771057,195.057297 
	C696.457458,193.962738 696.865723,192.601303 698.867249,191.938568 
	C700.940125,199.157516 701.223999,206.579330 702.248718,213.842422 
	C705.060425,233.769516 707.702637,253.721191 710.270447,273.681335 
	C710.703735,277.049042 713.196655,277.843536 715.529297,279.024811 
	C739.460876,291.144012 763.369568,303.309113 787.368958,315.292603 
	C790.822021,317.016815 792.622986,319.237701 793.526733,323.020355 
	C795.340759,330.612671 796.053650,339.307159 800.392639,345.218811 
	C804.648132,351.016663 813.614624,352.346283 820.535400,355.577118 
	C840.611572,364.949310 860.725647,374.244263 880.937927,383.317688 
	C884.889343,385.091461 885.565308,386.985565 884.190125,390.962402 
	C876.358887,413.608490 863.486267,432.971436 846.762573,449.967468 
	C843.113831,453.675629 839.134460,454.778564 834.106506,453.885071 
	C806.580566,448.993683 778.945129,444.791992 751.170227,441.597046 
	C743.404541,440.703766 735.552002,440.556488 727.736755,440.111328 
	C726.753174,440.055328 725.711670,440.122467 724.770996,440.391327 
	C722.748047,440.969513 721.743347,442.663544 721.723816,444.535645 
	C721.698792,446.929413 723.836548,446.724579 725.444519,446.767487 
	C732.445984,446.954407 739.389282,447.716034 746.305359,448.761200 
	C748.076782,449.028900 750.008789,448.933411 751.361145,450.629761 
	C751.382507,453.312744 749.304016,455.075073 748.213806,457.244476 
	C743.224121,467.173401 741.660522,477.861755 741.350525,488.725677 
	C740.998840,501.048676 741.218323,513.387939 741.191284,525.720154 
	C741.186707,527.824402 741.190674,529.928589 741.190674,531.714539 
	C739.195312,532.571167 738.651184,531.589050 738.114746,530.791260 
	C719.994629,503.841766 700.041016,478.126526 684.210815,449.633911 
	C671.787170,427.272675 668.881592,403.497620 672.274719,378.572449 
	C672.651794,375.802277 673.145996,373.028198 672.424072,369.984833 
	C669.894287,370.222687 669.627502,372.279633 668.924805,373.777679 
	C655.484802,402.428802 656.231934,430.233612 673.046753,457.567444 
	C687.032104,480.301727 702.928223,501.722198 717.540527,524.016663 
	C724.486450,534.614380 731.157349,545.337036 735.712097,557.273743 
	C740.473877,569.752991 741.059387,582.409851 737.045593,594.985840 
	C722.731079,639.835999 705.433044,683.432617 681.349731,724.079712 
	C680.222473,725.982178 679.442993,728.296082 676.023865,729.797668 
	C676.023865,714.579346 676.023865,700.039673 676.024841,685.000000 
M750.659729,333.105499 
	C749.177979,332.537354 747.744629,331.640259 745.531006,332.531433 
	C752.196777,340.043030 759.283875,346.739105 766.323486,353.480286 
	C767.404602,354.515594 768.622070,354.722748 769.960876,353.971802 
	C773.956360,351.730591 777.953552,349.492523 782.768616,346.794647 
	C771.999817,341.234985 761.434570,337.822266 750.659729,333.105499 
z"/>
<path fill="#000000" opacity="1.000000" stroke="none" 
	d="
M583.321655,350.380005 
	C580.542847,354.692047 579.787354,359.371307 578.402893,363.796875 
	C572.588318,382.384186 566.889771,401.008057 561.222656,419.641052 
	C559.119263,426.557037 554.692200,430.696869 547.501709,431.739197 
	C544.633362,432.154999 541.881592,431.408417 539.174438,430.585175 
	C537.424255,430.052917 535.701050,429.417023 533.999390,428.742767 
	C514.900085,421.175507 519.821228,426.444519 518.976807,405.807068 
	C518.853210,402.787140 520.116638,400.780457 522.864746,399.481781 
	C524.965759,398.488922 526.821106,396.947235 528.956543,396.061462 
	C535.358887,393.405762 535.705139,387.539307 536.630798,381.998596 
	C536.992798,379.832001 535.762451,378.705688 533.622192,378.184235 
	C530.009033,377.303955 526.353577,377.301544 522.692993,377.298309 
	C513.706726,377.290405 504.692352,376.635010 495.755798,378.039032 
	C490.598633,378.849243 490.228607,380.340698 490.905060,385.620819 
	C491.814148,392.716583 496.714691,395.862152 502.243103,398.317474 
	C506.845367,400.361481 508.201965,403.683044 507.888763,408.237488 
	C507.774536,409.898285 507.256317,411.655121 507.619995,413.204407 
	C509.632874,421.779297 504.927856,425.168640 497.619354,427.033539 
	C494.088501,427.934509 490.780579,429.677063 487.279572,430.733215 
	C476.540741,433.972748 469.017944,430.026581 465.686615,419.293915 
	C459.322601,398.790527 453.047852,378.259094 446.851318,357.704529 
	C445.721802,353.957733 444.080200,350.619354 441.587189,347.616882 
	C436.585297,341.592743 432.013672,335.172028 426.647461,329.498566 
	C417.582336,319.914490 415.505768,309.120270 417.843842,296.342651 
	C420.233826,283.281372 421.141968,269.947327 422.650208,256.727142 
	C423.287994,251.137024 420.658569,246.228424 418.537018,241.476181 
	C415.515167,234.707260 415.457306,228.209366 416.974030,221.140961 
	C424.652374,185.357269 432.085052,149.520874 439.604279,113.703033 
	C439.899445,112.296989 439.775421,110.690575 441.349518,109.812561 
	C443.170471,110.895576 443.570862,112.785332 444.253174,114.417824 
	C455.361176,140.993668 466.429962,167.585922 477.496552,194.179031 
	C480.603943,201.646118 480.587677,201.658508 488.749451,201.660995 
	C505.911743,201.666260 523.076660,201.500488 540.234558,201.776154 
	C544.819214,201.849823 547.022949,200.304794 548.745544,196.115265 
	C560.017456,168.701370 571.534119,141.388016 583.013977,114.059952 
	C583.630798,112.591728 583.857300,110.793793 586.253357,109.561050 
	C587.248840,113.847115 588.270203,117.917358 589.135254,122.020546 
	C595.723755,153.270966 602.065979,184.575638 608.973572,215.755142 
	C611.200439,225.806580 612.174927,235.403290 607.086060,244.748688 
	C603.200195,251.884827 604.803406,259.357971 605.581238,266.730774 
	C606.942383,279.632202 608.569275,292.505890 610.126770,305.386108 
	C610.955078,312.235535 608.988647,318.237640 604.751526,323.556091 
	C597.696228,332.411835 590.602051,341.236633 583.321655,350.380005 
M577.504395,276.380280 
	C576.783203,275.405975 575.814636,275.372589 574.839600,275.815247 
	C564.250183,280.622955 553.655212,285.418884 543.099915,290.300751 
	C540.353882,291.570862 539.785278,293.781738 540.992188,296.538422 
	C541.724182,298.210419 542.421814,299.910065 542.961243,301.651093 
	C544.090881,305.297272 546.313477,305.667847 549.456421,304.155426 
	C554.098816,301.921326 558.638794,299.297516 563.512451,297.757660 
	C573.855286,294.489807 576.015625,286.015594 577.504395,276.380280 
M476.670380,303.681061 
	C480.939911,306.371033 483.359436,304.824829 484.572601,300.297577 
	C484.958130,298.858765 485.524719,297.462219 486.087189,296.078339 
	C487.136932,293.495483 486.570892,291.465820 484.000458,290.276581 
	C473.596863,285.463409 463.185059,280.667114 452.738129,275.949005 
	C450.059692,274.739380 448.507385,276.183044 449.395386,278.690643 
	C451.923248,285.829254 452.744019,294.085724 461.987488,296.926819 
	C466.860443,298.424561 471.340881,301.199371 476.670380,303.681061 
z"/>
<path fill="#000000" opacity="1.000000" stroke="none" 
	d="
M499.000000,512.962769 
	C478.678925,512.968445 458.857880,512.982300 439.036804,512.974243 
	C432.779633,512.971680 432.304047,512.214355 432.955658,505.955475 
	C435.952271,477.172272 438.872986,448.381042 441.764038,419.586975 
	C442.927155,408.002472 443.936798,396.402649 445.040527,384.812073 
	C445.147034,383.693542 445.008057,382.431061 446.244202,381.678375 
	C447.916534,382.001221 447.904602,383.484650 448.289948,384.685150 
	C452.459076,397.673462 456.474213,410.713654 460.834106,423.637573 
	C465.466309,437.368591 475.088959,442.542908 489.264008,438.974365 
	C495.385529,437.433350 501.414917,435.454102 507.368042,433.341156 
	C511.487946,431.878937 515.275757,431.770477 519.449219,433.307465 
	C525.531860,435.547485 531.765625,437.444916 538.041870,439.077332 
	C551.571838,442.596436 562.755432,436.316833 566.203186,423.854431 
	C569.572937,411.673767 573.830994,399.737732 577.753967,387.712250 
	C578.407104,385.710419 578.675842,383.483032 580.967529,381.409088 
	C582.917847,386.581909 582.655884,391.718964 583.150635,396.633484 
	C585.799255,422.945404 588.187866,449.283417 590.741638,475.605072 
	C591.769409,486.198914 592.839233,496.793213 594.183838,507.349915 
	C594.862305,512.676575 591.890015,512.993469 587.945496,512.986694 
	C558.463745,512.936035 528.981873,512.961060 499.000000,512.962769 
z"/>
<path fill="#000000" opacity="1.000000" stroke="none" 
	d="
M656.261169,779.031372 
	C656.263611,792.857117 656.304321,806.187439 656.258911,819.517517 
	C656.210083,833.850952 647.826721,842.285706 633.649658,842.314758 
	C619.486328,842.343811 605.320190,842.174988 591.161011,842.421021 
	C586.514099,842.501770 584.569397,841.268372 584.743103,836.294128 
	C585.019592,828.376160 584.747009,828.384277 576.900757,828.383789 
	C553.906128,828.382385 530.911499,828.375671 507.916870,828.337952 
	C505.804962,828.334473 503.612366,828.684082 501.485352,827.605713 
	C501.574890,823.602966 504.142731,823.015503 507.220612,822.992432 
	C517.384338,822.916077 527.547791,822.747925 537.711487,822.736206 
	C566.038269,822.703430 594.365662,822.632996 622.691101,822.831421 
	C627.500244,822.865112 628.896423,821.427795 628.884338,816.602051 
	C628.729492,754.783630 628.726746,692.964661 628.867432,631.146240 
	C628.878479,626.282471 627.338745,624.846130 622.588501,624.913025 
	C605.429138,625.154480 588.262878,624.899231 571.103333,625.134216 
	C566.166626,625.201721 564.443909,623.715576 564.525757,618.583069 
	C564.810181,600.758545 564.623596,582.926575 564.628479,565.097473 
	C564.628906,563.644958 564.397278,562.130737 565.489685,560.479431 
	C569.510681,562.509216 572.180237,565.960144 575.161743,568.883301 
	C593.602905,586.963379 611.882629,605.208130 630.231995,623.381958 
	C632.776489,625.902161 634.388977,628.519531 634.565735,632.453796 
	C635.747681,658.773315 635.004089,685.098938 635.088989,711.418884 
	C635.203430,746.906555 635.413696,782.397217 634.623047,817.882019 
	C634.594238,819.175354 634.325073,820.558350 635.783569,821.677490 
	C637.298401,820.143982 636.652100,818.244385 636.658142,816.579102 
	C636.709961,802.249268 636.826172,787.916931 636.595520,773.590576 
	C636.523926,769.149841 638.115540,767.442688 642.396240,767.910828 
	C643.383911,768.018799 644.394043,767.915894 645.393799,767.919312 
	C658.049011,767.963135 656.071045,767.353027 656.261169,779.031372 
z"/>
<path fill="#000000" opacity="1.000000" stroke="none" 
	d="
M431.024963,695.151123 
	C416.771088,694.941223 418.131714,697.252747 418.085541,682.597717 
	C418.064514,675.918762 418.074402,675.634460 424.719025,675.417786 
	C434.868256,675.086792 445.031799,675.133240 455.189301,675.126038 
	C497.310669,675.096252 539.432007,675.099854 581.553406,675.108215 
	C588.995605,675.109680 589.144897,675.237488 589.046143,682.628357 
	C588.857544,696.737366 590.625427,695.108215 576.435120,695.125183 
	C528.130066,695.182800 479.824860,695.150024 431.024963,695.151123 
z"/>
<path fill="#000000" opacity="1.000000" stroke="none" 
	d="
M486.000000,714.764526 
	C518.325745,714.772644 550.151550,714.777954 581.977295,714.791565 
	C589.054260,714.794556 589.140320,714.810791 589.079346,721.601624 
	C588.942993,736.789429 590.489441,734.306335 576.339905,734.338501 
	C526.018860,734.452881 475.697357,734.375122 425.376007,734.356201 
	C418.183197,734.353516 418.109589,734.245667 418.058197,727.158203 
	C417.968414,714.773499 417.968384,714.767700 430.512878,714.764465 
	C448.841919,714.759705 467.170959,714.764221 486.000000,714.764526 
z"/>
<path fill="#000000" opacity="1.000000" stroke="none" 
	d="
M480.999939,647.297852 
	C461.668213,647.300354 442.835022,647.174744 424.005951,647.397522 
	C419.397369,647.452087 417.887207,645.976257 417.975006,641.400085 
	C418.293884,624.783691 416.740479,627.827087 431.415344,627.757019 
	C466.744781,627.588318 502.075531,627.697083 537.405762,627.695068 
	C544.155701,627.694702 544.155701,627.697327 544.214111,634.221252 
	C544.331299,647.307495 544.331299,647.300354 531.495605,647.295837 
	C514.830383,647.289856 498.165161,647.296631 480.999939,647.297852 
z"/>
<path fill="#000000" opacity="1.000000" stroke="none" 
	d="
M390.215027,594.955933 
	C390.189209,605.826843 391.291138,605.182312 380.563751,605.167908 
	C369.432556,605.152954 370.712189,606.166992 370.674744,595.284424 
	C370.628357,581.796936 370.627930,568.309082 370.677307,554.821594 
	C370.723511,542.203125 379.099335,533.183411 391.710693,532.904419 
	C407.022736,532.565674 422.347748,532.847778 437.666351,532.744446 
	C440.942627,532.722351 442.155212,534.180725 442.099121,537.252014 
	C442.035278,540.747498 441.947144,544.251709 442.118195,547.739929 
	C442.312317,551.698120 440.443207,552.991455 436.704712,552.960510 
	C423.550995,552.851562 410.395813,552.883362 397.241333,552.912781 
	C390.580414,552.927734 390.234772,553.308777 390.225037,559.995667 
	C390.208252,571.485168 390.215790,582.974670 390.215027,594.955933 
z"/>
<path fill="#000000" opacity="1.000000" stroke="none" 
	d="
M442.103882,833.947083 
	C442.046997,842.330994 442.046997,842.330383 434.130768,842.328918 
	C420.480835,842.326294 406.830780,842.355469 393.180969,842.313965 
	C379.153809,842.271362 370.701965,833.897644 370.674500,820.030823 
	C370.644196,804.716309 370.838806,789.398621 370.566162,774.088867 
	C370.478577,769.170410 372.252045,767.775330 376.923523,767.856934 
	C392.590942,768.130859 390.016968,766.328552 390.182983,781.131531 
	C390.317352,793.115356 390.365143,805.104553 390.146576,817.085754 
	C390.066010,821.503174 391.693420,822.851746 395.983002,822.782898 
	C408.797241,822.577148 421.617004,822.716858 434.434631,822.721313 
	C442.036896,822.723999 442.037811,822.723755 442.102875,830.468689 
	C442.111267,831.467407 442.104584,832.466309 442.103882,833.947083 
z"/>
<path fill="#000000" opacity="1.000000" stroke="none" 
	d="
M636.698853,598.863159 
	C636.693726,585.223877 636.699219,572.066528 636.681519,558.909180 
	C636.673950,553.255005 635.730469,552.226990 629.929932,552.561340 
	C617.278198,553.290771 604.618469,552.555786 591.973267,552.959167 
	C587.289795,553.108643 585.514526,551.646606 585.577087,546.715088 
	C585.753418,532.821899 585.558411,532.811951 599.642883,532.803040 
	C610.801697,532.796021 621.960754,532.760986 633.119202,532.827393 
	C647.416687,532.912537 656.203186,541.673523 656.256165,555.900024 
	C656.310181,570.389587 656.153931,584.881165 656.351868,599.368225 
	C656.409363,603.579407 655.292664,605.658081 650.750244,605.220154 
	C647.944580,604.949768 645.073425,604.951599 642.265381,605.204712 
	C637.759949,605.610718 636.172241,603.560974 636.698853,598.863159 
z"/>
<path fill="#000000" opacity="1.000000" stroke="none" 
	d="
M440.000244,774.209106 
	C434.005981,774.204712 428.509003,774.095703 423.018280,774.234253 
	C419.651886,774.319214 418.079285,772.966187 418.109802,769.577698 
	C418.275574,751.179016 415.642151,754.940369 431.984100,754.694031 
	C449.462006,754.430481 466.948914,754.791565 484.428162,754.576416 
	C489.084625,754.519043 490.781006,756.115173 490.318756,760.635986 
	C490.066010,763.107727 490.038788,765.652588 490.318298,768.118164 
	C490.883850,773.106873 488.562744,774.344177 483.954498,774.277283 
	C469.472443,774.067139 454.985321,774.205505 440.000244,774.209106 
z"/>
<path fill="#000000" opacity="1.000000" stroke="none" 
	d="
M573.865479,762.107117 
	C573.973877,754.958984 573.973938,754.918579 580.506287,754.928040 
	C594.174683,754.947876 592.063293,753.773315 592.204468,766.512085 
	C592.289673,774.196960 592.218262,774.247986 584.574768,774.210938 
	C572.672852,774.153259 573.966003,775.645935 573.865479,762.107117 
z"/>
<path fill="#000000" opacity="1.000000" stroke="none" 
	d="
M560.237671,760.197754 
	C560.238342,763.322510 560.035706,765.990723 560.279175,768.617615 
	C560.693054,773.082642 558.646118,774.363892 554.454895,774.273560 
	C540.701233,773.977173 542.169006,776.015076 542.072083,762.235962 
	C542.021362,755.032715 542.113647,754.990295 549.182861,754.961975 
	C551.335632,754.953308 553.491638,755.027527 555.640503,754.934570 
	C559.044495,754.787354 560.549927,756.354736 560.237671,760.197754 
z"/>
<path fill="#000000" opacity="1.000000" stroke="none" 
	d="
M512.366089,773.849121 
	C509.262726,768.193115 509.724457,761.993530 511.118927,756.828064 
	C512.219910,752.749878 518.178955,755.496643 521.937561,755.045898 
	C524.061951,754.791199 527.424988,754.096191 527.925171,756.997009 
	C528.792725,762.028564 528.677795,767.247803 527.930664,772.343445 
	C527.667236,774.140320 525.732971,774.147339 524.248779,774.149658 
	C520.436035,774.155701 516.623108,774.062988 512.366089,773.849121 
z"/>
</svg>